<svg id="Capa_1" enable-background="new 0 0 512 512" height="512" viewBox="0 0 512 512" width="512" xmlns="http://www.w3.org/2000/svg"><g><path d="m462.79 236.934h-270.899c-16.568 0-30-13.432-30-30v-206.933h-30v55.411c-6.976-3.373-14.801-5.265-23.069-5.265-2.98 0-5.898.258-8.744.73v-50.877h-30v66.968c-8.879 9.487-14.324 22.228-14.324 36.247v17.531l.008.096-52.458 13.374v41.511h56.81v180.139c0 16.2 13.132 29.332 29.332 29.332h11.876v126.802h51.813v-126.802h196.029v126.802h51.813v-126.802h1.574c16.2 0 29.332-13.132 29.332-29.332v-88.932h30.906c8.771 0 15.906 7.136 15.906 15.906v24.725h30v-24.725c.001-25.313-20.592-45.906-45.905-45.906z"/></g></svg>