<?xml version="1.0" standalone="no"?>
<!DOCTYPE svg PUBLIC "-//W3C//DTD SVG 20010904//EN"
 "http://www.w3.org/TR/2001/REC-SVG-20010904/DTD/svg10.dtd">
<svg version="1.0" xmlns="http://www.w3.org/2000/svg"
 width="120.000000pt" height="120.000000pt" viewBox="0 0 120.000000 120.000000"
 preserveAspectRatio="xMidYMid meet">
<metadata>
Created by potrace 1.11, written by Peter Selinger 2001-2013
</metadata>
<g transform="translate(0.000000,120.000000) scale(0.100000,-0.100000)"
fill="#000000" stroke="none">
<path d="M1100 1099 c-137 -125 -177 -160 -200 -180 -14 -11 -47 -41 -75 -66
-27 -25 -51 -41 -53 -34 -6 17 -21 13 -48 -14 -21 -21 -32 -24 -60 -19 -33 6
-37 3 -224 -185 l-190 -192 -28 15 c-27 14 -31 14 -49 -7 -24 -26 -23 -44 6
-92 24 -42 22 -49 -34 -98 -38 -33 -46 -37 -65 -27 -27 14 -50 6 -50 -17 0
-26 65 -103 112 -136 38 -25 43 -26 59 -11 16 14 16 19 4 38 -13 20 -11 25 34
73 l48 51 39 -24 c46 -28 71 -30 95 -8 14 12 15 22 8 49 -9 32 -7 36 47 87 31
29 120 115 197 190 l140 137 -17 26 c-18 27 -17 28 14 60 20 20 28 35 21 39
-21 14 -31 1 153 200 56 61 118 127 139 148 50 51 34 48 -23 -3z"/>
<path d="M1073 961 c-16 -47 -18 -64 -9 -82 22 -45 76 -24 76 29 0 25 -34 112
-43 112 -2 0 -13 -27 -24 -59z"/>
<path d="M1080 735 c-27 -63 -25 -54 -17 -92 5 -26 12 -33 30 -33 50 0 58 34
28 120 l-20 55 -21 -50z"/>
</g>
</svg>
